Coordinates
version=1
nRows=7
nColumns=46
inDegrees=yes

Units are S.I. units (second, meters, Newtons, ...)
Angles are in degrees.

endheader
time	pelvis_tilt	pelvis_list	pelvis_rotation	pelvis_tx	pelvis_ty	pelvis_tz	bb_angle	bb_tx	bb_ty	bb_tz	hip_flexion_r	hip_adduction_r	hip_rotation_r	knee_angle_r	knee_angle_r_beta	ankle_angle_r	subtalar_angle_r	mtp_angle_r	crank_angle_r	hip_flexion_l	hip_adduction_l	hip_rotation_l	knee_angle_l	knee_angle_l_beta	ankle_angle_l	subtalar_angle_l	mtp_angle_l	crank_angle_l	lumbar_extension	lumbar_bending	lumbar_rotation	arm_flex_r	arm_add_r	arm_rot_r	elbow_flex_r	pro_sup_r	wrist_flex_r	wrist_dev_r	arm_flex_l	arm_add_l	arm_rot_l	elbow_flex_l	pro_sup_l	wrist_flex_l	wrist_dev_l
      5.00500000	    -14.03731456	      8.29832174	      3.65673454	      0.18267148	      1.06204312	     -0.29947939	      0.00000000	      0.50000000	      0.00000000	      0.25000000	     44.02334424	    -15.23438532	     -2.16013930	     38.83932593	      0.67787412	    -26.19031734	     -2.80565504	      0.00000000	      0.00000000	     92.95034260	     -3.39417782	     -0.30849270	    114.28567861	      1.99466138	     -1.86144521	     -0.08494185	      0.00000000	      0.00000000	    -65.76818071	     -5.23160803	     -6.56516509	     89.32575950	    -16.49985703	     33.12414477	     45.73566801	     28.89095104	      0.00000000	      0.00000000	     89.51580070	     -8.57349407	     30.21865895	     52.73538192	     38.01239239	      0.00000000	      0.00000000
      5.01000000	    -13.98359629	      8.48744737	      3.63523770	      0.18215004	      1.06274781	     -0.29887968	      0.00000000	      0.50000000	      0.00000000	      0.25000000	     44.20061547	    -15.43566223	     -2.11957993	     40.26040358	      0.70267660	    -26.35072335	     -3.41164643	      0.00000000	      0.00000000	     93.02599148	     -3.55141559	     -0.60564104	    113.21095707	      1.97590395	     -1.55454946	      0.17397338	      0.00000000	      0.00000000	    -65.94822766	     -5.50964152	     -6.55253148	     89.34476543	    -16.85195713	     33.15727524	     45.72942977	     28.90756852	      0.00000000	      0.00000000	     89.52204946	     -8.17522302	     30.00593336	     52.85525420	     37.94222977	      0.00000000	      0.00000000
      5.01500000	    -13.97688153	      8.79782656	      3.66305027	      0.18154263	      1.06342145	     -0.29841584	      0.00000000	      0.50000000	      0.00000000	      0.25000000	     44.57967823	    -15.77650655	     -2.01455951	     41.91595689	      0.73157146	    -26.42706355	     -4.36352549	      0.00000000	      0.00000000	     92.91997970	     -3.64480814	     -1.10766098	    111.95873363	      1.95404853	     -0.85800357	      0.56924160	      0.00000000	      0.00000000	    -66.11060709	     -5.86239735	     -6.64923030	     89.33139428	    -17.42119735	     33.19011717	     45.80677032	     28.94829306	      0.00000000	      0.00000000	     89.52938848	     -7.59087709	     29.61475157	     52.98239896	     37.82173961	      0.00000000	      0.00000000
      5.02000000	    -13.88646573	      8.96906135	      3.56373902	      0.18080083	      1.06412439	     -0.29775318	      0.00000000	      0.50000000	      0.00000000	      0.25000000	     44.95047296	    -15.86502538	     -1.77273591	     43.63210031	      0.76152381	    -26.61766836	     -5.38476505	      0.00000000	      0.00000000	     92.56776761	     -3.86453982	     -1.44488633	    110.60629587	      1.93044404	     -0.00763672	      1.03107994	      0.00000000	      0.00000000	    -66.41013641	     -6.27642879	     -6.20030283	     89.32716576	    -19.05743179	     34.18932365	     46.75629339	     30.52401517	      0.00000000	      0.00000000	     89.53598694	     -5.79551714	     27.45146119	     52.58970608	     36.70758342	      0.00000000	      0.00000000
      5.02500000	    -13.82481789	      9.03144525	      3.44252001	      0.18008811	      1.06467023	     -0.29712429	      0.00000000	      0.50000000	      0.00000000	      0.25000000	     45.42987689	    -15.83317117	     -1.50396482	     45.51505778	      0.79438762	    -26.61820268	     -6.34602019	      0.00000000	      0.00000000	     92.07682138	     -4.11318923	     -1.68435750	    109.13259315	      1.90472307	      1.08103726	      1.60921174	      0.00000000	      0.00000000	    -66.60595211	     -6.55049191	     -6.02316004	     89.32300185	    -19.26909201	     33.37064979	     46.65143509	     31.78436099	      0.00000000	      0.00000000	     89.54590660	     -5.30622116	     26.96989807	     52.57582649	     36.98066695	      0.00000000	      0.00000000
      5.03000000	    -13.71062069	      9.02997611	      3.27038887	      0.17933073	      1.06521901	     -0.29636591	      0.00000000	      0.50000000	      0.00000000	      0.25000000	     45.91809713	    -15.67297958	     -1.15304481	     47.48570206	      0.82878185	    -26.69158730	     -7.43825921	      0.00000000	      0.00000000	     91.38802884	     -4.38887041	     -1.84582030	    107.51522939	      1.87649475	      2.28995422	      2.23196651	      0.00000000	      0.00000000	    -66.85618049	     -6.82124133	     -5.75673821	     89.32763411	    -19.61528203	     32.83886248	     46.74650584	     32.60793886	      0.00000000	      0.00000000	     89.54776168	     -4.77740867	     26.45681923	     52.64532990	     37.08804783	      0.00000000	      0.00000000
      5.03500000	    -13.47048119	      8.80504975	      3.12521601	      0.17852826	      1.06573218	     -0.29581882	      0.00000000	      0.50000000	      0.00000000	      0.25000000	     46.27811642	    -15.36034221	     -0.88019716	     49.54245490	      0.86467896	    -26.59413850	     -7.89012078	      0.00000000	      0.00000000	     90.51250225	     -4.58113170	     -1.86618816	    105.81588578	      1.84683561	      3.27547996	      2.35496266	      0.00000000	      0.00000000	    -67.12594927	     -6.79744554	     -5.36640919	     89.37910699	    -19.65198138	     32.85025220	     46.74192883	     32.59571510	      0.00000000	      0.00000000	     89.54540435	     -4.68710342	     26.36452515	     52.75589004	     37.04936823	      0.00000000	      0.00000000
